<svg xmlns="http://www.w3.org/2000/svg" xmlns:xlink="http://www.w3.org/1999/xlink" width="111" height="47" viewBox="0 0 111 47">
  <defs>
    <path id="accent2-a" d="M116.758157,22.823973 C116.880676,22.5047705 117.003196,22.1855679 117.125715,21.8646116 C116.040543,21.4524544 114.937868,21.0385435 113.852695,20.6263864 C113.747678,20.9245426 113.642662,21.2226988 113.520142,21.5226088 M80.4223825,2.9913237 C84.6580556,2.89836912 89.5763372,5.73260694 94.0220437,0.939307457 M80.9999743,5.9623626 C77.3944013,3.62972875 69.815697,5.28888035 66.5076713,8.75976936 M130.095276,29.9674449 C128.817573,26.0124905 127.732401,22.6801565 124.319358,20.4702928 M114.867856,67.3825411 C113.38012,64.3448555 111.069753,61.8841899 111.80487,58.562379 C106.729063,58.4729321 103.648573,60.7634733 105.836421,65.404187 M136.711328,15.0228036 C144.552574,24.5445097 149.033286,33.1752549 152.673864,41.946309 C155.736851,49.3563676 161.687797,54.7389641 164.488242,62.0964069 C168.531384,72.6897216 169.371518,84.2160897 165.4859,94.1429375 C162.475422,101.823091 162.9655,109.248934 161.477763,116.702839 C160.742646,120.398222 159.955021,123.702495 155.98189,125.798357 C151.781222,128.008221 151.081111,133.157554 148.753241,136.954661 C141.612106,148.561707 131.618018,157.015312 119.541099,163.146807 C115.602973,165.151469 111.647345,167.170162 107.849241,169.446672 C99.9904922,174.162802 91.2916098,171.821399 82.9952914,172.815837 C71.3909473,174.206648 62.7970816,167.415702 53.4680991,162.676772 C49.5649789,160.698418 45.3818141,162.385632 41.6712244,160.665095 C30.0668804,155.286006 22.0506065,146.044918 15.1020022,135.693636 C5.38795855,121.238321 -2.48829309,106.069186 0.732218688,87.8641186 C3.60267484,71.6356517 10.2012234,57.1978759 19.6002171,43.2880119 C31.6771363,25.4284552 50.5801402,18.0166426 67.0502575,6.67442978 C87.6160257,-7.48097458 127.679892,3.56132821 136.711328,15.0228036"/>
  </defs>
  <g fill="none" fill-rule="evenodd" transform="translate(-9 -128)">
    <mask id="accent2-b" fill="#fff">
      <use xlink:href="#accent2-a"/>
    </mask>
    <path fill="#1A1919" d="M206-20C201.480875-14.5390411 197.04933-9.04831738 191.531793-4.49430835 188.624139-2.09036587 186.34706 1.05594487 183.667114 3.75928587 181.214875 6.24376831 178.972829 8.91909541 176.538106 11.3965744 172.597009 15.4148176 169.461647 20.1018927 165.327873 23.9748138 160.160656 28.8177162 155.361275 34.06682 150.561894 39.2826574 144.028431 46.3631697 137.65261 53.5784989 131.224242 60.7378002 124.340459 68.3908466 117.421643 76.0211316 110.572891 83.7074444 105.405674 89.5045701 99.818074 95.0163042 95.3339808 101.29667 89.5537043 109.350665 82.074377 115.744837 75.7335889 123.198284 67.7112659 132.591694 59.9691987 142.245983 51.421396 151.138644 42.6809175 160.241409 34.7111424 169.993747 26.3560156 179.401164 22.6951739 183.501698 18.8416563 187.343103 15.0231706 191.254544 14.445143 191.855091 13.9196633 192.394359 13.2365398 191.604717 12.6234801 190.892114 13.3416357 190.452646 13.8145674 190.025434 19.5247799 184.988185 23.8862611 178.662297 29.2461538 173.402688 37.040769 165.751393 43.486653 156.969036 51.2112042 149.245955 59.548815 140.904817 66.6077586 131.299553 74.3848578 122.38413 79.7097185 116.268346 85.8052827 110.758363 90.6922436 104.325672 100.466166 91.4883041 111.693915 79.9885997 122.466248 68.0599324 130.068187 59.6470092 137.319807 50.9294348 144.99181 42.5865463 152.698845 34.2068895 160.773716 26.1826591 168.568331 17.887044 173.33268 12.8147779 177.74671 7.39759066 182.546091 2.372598 186.679864-1.94854552 191.111409-5.99130094 195.525439-10.0533159 199.063668-13.3239383 201.883743-17.3211712 206-20M57.1582191 193C56.5636701 190.959662 57.7702548 189.758226 58.6970518 188.819495 68.244809 179.087168 75.764105 167.668278 84.7173132 157.419299 94.2126102 146.55384 103.550527 135.544769 113.080797 124.703829 118.921367 118.052151 125.408945 112.022206 131.284488 105.416063 134.169799 102.169035 136.84527 98.7258545 139.660634 95.4140261 148.264108 85.2876424 156.587793 74.9003055 165.593462 65.150465 174.092015 55.9715689 181.663771 46.0588515 189.480342 36.3650546 196.475036 27.680043 204.606367 19.9407677 210.866618 10.6410276 211.268813 10.0227963 211.740955 9.25394771 213 9 210.884105 13.5710587 208.645803 17.692017 205.463217 21.271804 201.126507 26.1493513 196.66739 30.9568441 192.627954 36.0795823 189.480342 40.0744425 185.563313 43.4212981 182.747949 47.6245705 177.536902 55.3953703 170.804509 61.8649071 164.981426 69.1067951 161.204291 73.7829356 157.51459 78.6079421 153.037986 82.7043813 150.50241 85.0266893 148.771223 88.0057586 146.497947 90.5767602 141.042086 96.781841 136.005907 103.361714 130.235284 109.314598 127.280026 112.363722 124.359741 115.439116 121.42197 118.509257 116.805472 123.34302 112.643629 128.588353 108.114564 133.521944 99.2837633 143.159698 90.7852102 153.095183 81.9544091 162.741693 76.9357162 168.226963 72.4591121 174.228886 68.0174815 180.243068 64.9223294 184.455098 61.5124161 188.432444 58.2074232 192.500861 58.0325559 192.712776 57.6653344 192.763566 57.1582191 193M24 192.862206C86.3278567 121.374808 148.918774 50.0888918 214-19 210.808196-13.8140407 207.528706-8.73320217 203.14436-4.38820923 195.568211 3.1086556 187.711464 10.3795107 180.784198 18.4457799 174.979324 25.2190632 168.788628 31.6454479 163.071442 38.511588 157.705003 44.981773 151.601994 50.8562736 145.744508 56.9305036 141.553074 61.3000247 137.572088 65.8307311 133.854163 70.6505196 130.714971 74.7379666 126.926897 78.3138257 123.507107 82.2032952 118.614178 87.7852095 113.914159 93.5353171 108.933543 99.0453989 105.110393 103.292279 100.848809 107.164228 97.02566 111.405853 89.9580949 119.205816 83.0132915 127.1109 76.1211002 135.05628 68.7904744 143.52376 61.705372 152.22601 54.2169097 160.556833 50.3236109 164.87029 47.3422559 169.994929 43.1858963 173.88615 37.9071442 178.809308 34.4698172 185.410894 28.3668082 189.489581 27.3671774 190.153594 26.5955326 191.183777 25.8414251 192.143881 25.2451541 192.913014 24.6488831 193.195089 24 192.862206M155-18C154.895079-16.9314845 154.335503-16.3438884 153.8109-15.7895195 147.428229-9.23677374 140.730796-2.95858928 134.715348 3.91418645 127.895508 11.7033323 120.760906 19.2109217 113.888605 26.9493524 109.551886 31.8354937 105.0403 36.747867 100.178978 41.2265384 98.2729203 42.9823315 96.7690581 45.1473433 95.107815 47.1567121 90.9459639 52.1949988 85.9622346 56.4428289 81.2058334 60.9040123 77.2713103 64.6062175 73.7389829 68.6826654 70.1367084 72.6891614 67.3388253 75.7845337 64.4010481 78.7504949 61.5332179 81.7846592 57.5637212 86.0115038 54.4685631 90.976341 50.306712 95.0720257 44.0639353 101.20506 38.0135131 107.516472 31.9106306 113.785912 28.1509752 117.649007 24.2863992 121.433405 20.7540718 125.504607 15.1932791 131.924444 9.3352114 138.020753 3.28478921 143.971912-1.89129452 149.045175-6.5777487 154.604604-11.4390706 159.982157-12.7855518 161.470384-14.8489906 162.343034-15.3386201 164.579747-15.4610275 165.09914-15.9681438 165.039681-16.3703395 164.912018-16.9124294 164.728395-17.1397574 164.256219-16.9124294 163.750817-16.5102337 162.948118-16.1604983 162.050985-15.5484614 161.452896-6.42036778 152.624964 1.48365197 142.65157 10.9964545 134.171649 15.1757924 130.450207 18.235977 125.516848 22.2404472 121.485869 31.9106306 111.725828 41.4409199 101.810144 51.0411563 91.9521702 55.9024782 86.9558546 59.9244351 81.2477783 64.6108893 76.0835781 72.6198296 67.2766319 81.2757805 59.1534656 89.5295356 50.6193319 95.2826827 44.6786654 100.598661 38.3130411 106.12448 32.1607701 107.103739 31.0747666 108.135458 30.0010047 109.289585 29.1091178 112.891859 26.3127899 115.444928 22.6105848 118.015483 18.9555972 119.886567 16.2764388 122.824344 14.8179413 124.90527 12.3643779 129.836539 6.57935445 134.872728.874775708 140.416034-4.3593764 145.207409-8.88526536 149.211879-14.2400845 155-18M182-19C176.998218-12.3338852 171.434832-6.54516666 165.713495-1.00463597 157.833495 6.61927408 150.374697 14.6521697 143.07385 22.7672119 139.177725 27.107003 135.141199 31.4677677 131.122224 35.6222918 121.838214 45.2037395 113.642311 55.7691995 103.638747 64.7336733 98.6369651 69.2028016 94.1616864 74.5842824 90.05496 80.1160741 86.93104 84.3090498 82.5961621 87.4865529 79.0861396 91.4138628 75.4357162 95.4879881 71.2763395 99.0902069 67.5908159 103.132872 62.5363834 108.692628 57.7803029 114.52679 52.7960709 120.142476 48.759545 124.678021 44.6352685 129.136662 40.4232415 133.50267 32.8766931 141.308352 25.382795 149.152485 17.6080951 156.725709 11.0970033 163.085958 5.4809673 170.229223-.679122227 176.881355-2.96063687 179.326529-5.69845444 181.331258-8.08526975 183.666321-10.0508824 185.580163-11.8234437 187.695003-13.7013058 189.697983-14.2629094 190.304471-14.5963615 191.382864-15.8248694 190.862019-16.2109719 190.236306-15.8950699 189.715461-15.4914173 189.320458-10.1912833 184.159201-4.69809802 179.160488.408984755 173.820955 4.27000953 169.80975 7.60453093 165.323144 11.4831058 161.301453 17.5027944 155.040828 23.6804341 148.923523 29.8054234 142.750288 37.9837759 134.483187 45.8462263 125.887499 53.5682759 117.160726 61.9923299 107.645695 70.3286334 98.0345348 79.4722421 89.1452165 89.124804 79.7682616 97.0574549 68.7693469 106.832868 59.4920166 114.414516 52.2980657 120.627256 43.8911406 127.787702 36.3633597 136.211756 27.5107452 144.56561 18.5794796 153.007214 9.74084752 161.519019.834051185 170.487126-7.62181237 178.700579-16.8152482 179.542984-17.7415829 180.38539-18.805994 182-19M65 193.943515C66.136393 191.29954 67.8672068 189.244475 69.6504696 187.358917 78.0422945 178.493826 86.08446 169.291466 93.6720683 159.748342 101.941512 149.334962 111.155037 139.770868 120.018902 129.921932 126.95964 122.215436 134.459834 114.951059 141.173294 107.040105 146.785326 100.436284 151.87287 93.3816077 157.764631 86.9927304 162.747277 81.5684757 167.502644 75.9152979 173.114677 71.0642248 175.981884 68.5740305 177.695215 65.1052336 180.14283 62.2445684 184.093981 57.6381459 188.202479 53.1732713 191.996283 48.446271 197.520901 41.5611024 202.835723 34.4994357 208.220478 27.5024268 208.972245 26.5308141 209.758979 25.6325967 210.947821 25 211.210065 26.1271406 210.423332 26.8820626 209.933809 27.406314 206.314834 31.2123793 204.234361 36.1787878 200.423074 39.8153451 198.499947 41.6537201 197.136276 43.9027587 195.80757 46.1378173 191.926351 52.6787275 185.580034 57.2292298 181.6114 63.6006321 178.446982 68.6404357 174.006308 72.256023 169.827879 76.2123737 164.00605 81.7414787 159.285649 88.2282163 153.900895 94.1242972 148.551106 99.9766906 143.883154 106.367315 138.673229 112.331549 133.02623 118.786832 126.697396 124.54486 120.980465 130.872574 111.836873 140.990627 102.553416 151.002081 93.829415 161.499342 88.0425524 168.464896 82.1507921 175.351812 76.1366509 182.133878 72.8498528 185.842083 69.458157 189.440195 66.5909501 193.503144 66.3461886 193.857887 66.0664611 194.120013 65 193.943515M163-16.5157207C156.322391-9.20083024 149.820508-1.74607574 142.967172 5.39223632 134.462006 14.2508763 126.202858 23.3000812 118.172154 32.5940481 111.652699 40.1414625 104.5182 47.1521486 97.8230182 54.5492092 88.9663995 64.3239588 80.1800714 74.1441643 69.9703582 82.5937019 68.0549387 84.1899005 67.0357246 86.6672427 65.1905957 88.4644959 56.4921309 96.9594894 48.5492903 106.164293 39.8332529 114.662783 31.9958482 122.318592 24.7734865 130.598545 17.3226803 138.647721 10.4166264 146.130449 3.84445303 153.961088-3.78207975 160.866876-8.49155161 165.14322-13.429468 169.520965-16.6101188 175.267629-17.2075891 176.342834-17.8402047 176.061358-19 175.519385-16.9264266 173.090995-15.0988703 170.615401-12.9550063 168.45625-6.85729458 162.359925-.44327508 156.578294 5.47871005 150.322874 12.4023366 142.997494 19.0448006 135.395882 25.5994014 127.738325 31.855267 120.430427 38.9546201 113.942483 45.5795114 106.994736 52.2746934 99.9823014 59.3213286 93.2583367 65.5420489 85.8525346 71.6046152 78.6425422 79.2662933 73.1686125 85.4870136 66.1719128 93.183837 57.5195722 101.021242 48.9948576 108.94651 40.5610547 116.256735 32.7811163 122.934344 24.4417216 130.191851 16.6215722 134.198417 12.3050176 138.820025 8.57239543 142.650864 4.05478623 145.585498.615878607 148.660713-2.69190646 151.771073-5.96997041 155.303177-9.69734766 158.940716-13.3268201 162.543111-17 162.701265-16.837408 162.841846-16.6765644 163-16.5157207M18.035052 167C18.7711433 164.855614 20.3309558 163.235061 21.8031384 161.656554 28.1300183 154.880014 34.0187487 147.709284 41.0116161 141.533663 47.9168535 135.43863 53.1921744 127.759836 59.7468922 121.298646 69.2985531 111.864398 77.2728755 101.039103 86.4740167 91.2859999 95.7803138 81.4190205 105.542287 71.935718 114.357856 61.6675422 124.803342 49.4932453 136.370491 38.3596064 146.658243 26.0486575 153.072753 18.3733669 160.433666 11.4811977 167.286326 4.16155283 173.963725-2.98114515 180.535969-10.2237043 187.178317-17.4172088 187.809252-18.1004691 188.282454-19.0307542 190-19 185.075199-14.4371427 181.552476-9.21107746 177.293662-4.62797765 172.438965.578816164 167.619319 5.83641652 162.72957 11.0116752 159.084165 14.8869875 155.245975 18.5993684 151.618097 22.5079677 147.779906 26.6478242 143.92419 30.7894328 140.418993 35.1990896 136.563277 40.0309662 131.726106 43.8729914 127.660077 48.4876263 124.277563 52.3261476 120.824944 56.0753195 117.722845 60.1661215 115.567149 63.0217991 112.833096 65.4605128 110.291828 68.016607 101.59894 76.7150361 93.6070919 86.0564307 85.071938 94.8845041 77.2202975 103.017053 70.9635215 112.535395 62.6386794 120.203678 55.3478704 126.938172 49.7045038 135.210877 42.3786428 141.868285 34.0538007 149.447218 26.5877318 157.812777 19.1917669 166.255421 18.8762992 166.623331 18.5958834 167.05431 18 166.949193L18.035052 167M13.035025 181.798737C19.2344412 175.839558 24.8034083 169.322417 30.3023256 162.709076 37.3073157 154.259181 45.0128048 146.414475 52.5256567 138.405353 57.4991997 133.088094 62.3851803 127.667638 66.9734488 121.976071 75.2743621 111.700118 83.6628378 101.516866 92.8043499 91.9353051 104.415121 79.7755726 116.236042 67.8222337 127.286414 55.1185316 137.776386 43.046254 148.599096 31.2485849 159.421806 19.4806505 164.868186 13.5651995 170.62979 7.91736053 176.356369 2.2695216 182.888523-4.17240803 189.298089-10.7297782 195.550042-17.4585599 196.443179-18.4275605 197.388852-19.4542813 199-20 198.894925-19.4385394 198.92995-19.0292504 198.754825-18.8770788 192.047547-13.0228462 186.863855-5.71161467 180.051502.167105252 174.09726 5.30945473 168.826005 11.4295502 163.432163 17.2907792 152.907165 28.7158903 142.136993 39.9153678 131.822145 51.5293815 125.254967 58.928068 118.827888 66.4614351 111.927973 73.5557785 102.120987 83.6480766 92.2264382 93.6546689 83.0148762 104.285689 74.6964504 113.867251 66.7632991 123.788137 58.357311 133.278745 50.178985 142.50524 41.3176725 151.144037 33.2969589 160.496467 28.9363525 165.57235 24.4181339 170.531044 20.2501648 175.795831 18.5514547 177.964713 16.3273703 179.738299 14.3309481 181.683296 13.9281612 182.075094 13.4728368 182.089087 13 181.803984L13.035025 181.798737M82.2510784 197C81.3734301 193.902002 82.9883029 192.641859 84.1467986 191.715078 88.1313216 188.552502 90.9222431 184.367151 94.2222005 180.647808 103.788566 169.851067 112.828343 158.5953 122.254285 147.667658 131.627569 136.811576 141.316805 126.273147 151.006042 115.712029 159.642101 106.295862 167.698912 96.3543431 176.264758 86.8613798 181.969472 80.534483 188.025245 74.5130225 194.063465 68.4950528 197.679376 64.894394 200.680933 60.7893288 204.191526 57.1066385 204.963856 56.293305 205.753739 55.5096424 207 55 206.666494 55.6422891 206.420752 56.3509016 205.999481 56.9181406 201.242628 63.1891862 195.748549 68.7865264 190.166707 74.3367421 182.285425 82.1751128 174.825415 90.3939699 167.75157 98.9723694 164.065448 103.421269 160.396878 107.953945 156.02619 111.83386 154.200682 113.448309 152.954421 115.670141 151.216678 117.392802 143.77422 124.76691 137.086541 132.80425 130.118014 140.595497 121.429296 150.296157 113.056532 160.23942 104.648662 170.179193 98.7333124 177.176305 92.5546688 183.950012 86.9026141 191.168783 85.5510358 192.887953 83.5324448 194.137625 82.2510784 197M206 63C203.650083 68.5344044 200.230428 73.2405783 196.249599 77.5922977 187.183128 87.5222896 178.221878 97.5540556 169.190481 107.522651 162.544074 114.857404 156.143181 122.448347 149.093431 129.374249 143.955179 134.434877 138.799392 139.49726 134.064484 144.917608 130.539609 148.955231 127.242711 153.291158 123.595079 157.174366 115.317759 165.986597 108.004958 175.595475 99.9380794 184.553349 96.9743783 187.829421 94.361411 191.347646 91.8712006 194.972909 91.4327832 195.597591 91.1346594 196.292462 90.1175312 195.871328 89.6440405 194.586869 90.7137788 193.9113 91.3275631 193.163787 96.3956674 187.099455 101.498845 181.075482 106.584486 175.039227 114.633828 165.482991 122.560414 155.812699 130.785123 146.410879 136.852819 139.481468 143.586909 133.159192 149.970265 126.531593 158.370341 117.835174 166.17417 108.591279 174.293659 99.6316507 178.712905 94.7587778 183.325056 90.0596228 187.709229 85.1551648 193.829535 78.2994521 200.247965 71.6894009 205.228385 63.8896459 205.438826 63.5615122 205.754486 63.2947939 206 63M206 95C202.607851 100.833128 198.864184 106.270051 194.329602 111.118773 185.682259 120.346706 177.386433 129.887065 168.176661 138.614067 162.077824 144.396579 157.015964 151.24553 151.092886 157.240981 145.468597 162.94495 140.160675 168.886293 135.116392 175.071992 130.265443 181.016826 125.273887 186.835991 120.141724 192.548687 119.350809 193.43535 118.805956 194.596042 118.331406 195.709607 117.979888 196.524709 117.839281 197.4201 116.696848 196.784774 115.501686 196.121522 116.099267 195.114426 116.608968 194.468628 118.665349 191.901143 120.792033 189.398239 122.936292 186.914534 125.889044 183.504022 129.087858 180.287249 131.829698 176.716159 140.670376 165.161608 151.233493 155.130792 160.812359 144.227275 166.260888 138.015395 172.500333 132.485966 178.107045 126.404991 185.945897 117.925835 194.206571 109.814959 201.166627 100.569573 202.643003 98.612979 204.383017 96.8518699 206 95M92 67C87.3852276 73.2972616 82.3684106 78.6405522 77.4914351 84.0890601 72.2124151 89.9864956 66.915915 95.8821775 61.3222514 101.483251 52.9142758 109.919933 45.1530677 118.977398 36.4828891 127.170326 33.7559781 129.746399 31.5534731 132.901168 28.7216809 135.340458 22.7958936 140.443502 18.9327697 147.433445 13.1293437 152.513692 7.16859601 157.725461 2.29162059 164.034998-4.10613211 168.766273-8.31885998 171.875448-10.9758502 176.461173-14.3145681 180.384029-15.5906226 181.883377-17.0939197 182.998681-18.8419396 184-19.3488653 182.660232-18.527296 182.139406-17.915489 181.737826-14.2096869 179.259956-11.8498601 175.537013-9.03554812 172.238448-5.4521074 168.03852-.88977556 164.950389 2.99082854 161.106446 3.34043251 160.762736 3.84735827 160.564577 4.14452165 160.192809 9.70322481 153.294054 16.6253835 147.677198 22.0092847 140.564502 25.3654828 136.115559 29.8578938 132.531153 33.7210177 128.459239 41.9017507 119.871746 49.6979193 110.89144 58.2282562 102.679222 68.1045685 93.1640612 76.599945 82.3880454 86.2315344 72.6799862 88.0145147 70.8825222 88.8885246 68.1608987 92 67M-21 160.310245C9.1224411 128.037382 39.9654307 96.4236136 70 64 67.5395906 67.1622533 65.51854 70.8153219 62.5309 73.3763264 57.6276555 77.5920798 54.1303592 83.0313658 49.3149865 87.269907 41.0901893 94.4936575 34.9743144 103.691187 27.188876 111.284802 19.1925454 119.067731 11.9519119 127.555331 3.83256083 135.217309-1.15855543 139.91862-6.13209733 144.711081-10.3147934 150.250283-13.0739668 153.901599-16.6239861 156.930631-19.207416 160.767755-19.4183082 161.083279-20.103708 161.198971-21 160.310245M52 176C52.4743875 172.29491 55.4437021 170.163912 57.6223707 167.679797 60.3105667 164.603641 62.8406335 161.427347 65.4058401 158.279162 68.884682 154.03122 72.152685 149.563679 76.0356347 145.637231 84.9084385 136.689851 93.0960158 127.167997 101.072754 117.398434 106.941104 110.22015 112.668894 102.860916 119.24004 96.2658906 120.241524 95.2487036 120.575353 93.5463647 123 93 99.9834199 121.744756 75.2449889 148.216213 52 176M110 119C89.3459927 143.921028 69.4308852 169.454625 47 193 48.4777995 190.793004 49.6741134 188.323479 51.4685842 186.422767 63.7132086 173.541331 75.5180117 160.269601 86.2496509 146.147277 92.8117844 137.494312 100.37671 129.721695 107.061994 121.191244 107.800894 120.239138 108.627758 119.290532 110 119M111 153.856335C99.3430261 167.904811 87.6683095 181.953286 76.0113356 196 75.6742238 195.719841 75.3371119 195.441444 75 195.161285 86.6924593 181.107523 98.3849187 167.052 110.077378 153 110.379004 153.285445 110.698374 153.57089 111 153.856335M148 110.707219C137.909874 122.805397 127.819747 134.901821 117.711825 147 117.480482 146.803453 117.231343 146.605151 117 146.408604 126.146958 133.513707 136.753157 121.810378 147.252583 110 147.501722 110.23691 147.750861 110.472064 148 110.707219" mask="url(#accent2-b)"/>
  </g>
</svg>
