<svg xmlns="http://www.w3.org/2000/svg" viewBox="0 0 120 98">
  <path fill="#1A1919" d="M123.406983 5.65639188C127.981347 5.79669283 131.190229 7.5829635 130.336802 11.0391577 129.346828 14.9778503 125.386931 16.7983407 121.188075 16.6477738 118.320564 16.5451146 115.043408 16.1207898 115.521326 11.9733567 116.101656 6.71378199 120.471197 6.34078677 123.406983 5.65639188M48.1111676 101.74545C46.183315 101.579939 44.2905144 99.4390898 44.5358774 96.3339587 44.8162923 92.6711273 46.9895079 89.5012309 50.845213 89.7602917 54.3153476 89.994166 57.7153784 92.4696356 57.5050672 96.3303606 57.2597042 100.799159 53.2287398 101.59793 48.1111676 101.74545M52.4726698 56.9710623C55.5483678 52.4251691 57.5056301 46.9209331 64.1463416 49.2544442 67.0472841 50.2876017 67.0123329 53.3051343 65.2647773 55.0935656 61.9094704 58.517236 58.1697013 62.468173 52.4726698 56.9710623M12.9335776 19.7420965C16.6017688 19.9914302 19.0584473 20.9290653 18.2844253 23.8438111 17.1402188 28.2896764 13.303762 29.641697 9.33269268 29.7400258 7.48177053 29.7821667 4.78952013 29.0130952 5.56354212 26.0983494 6.67409541 21.7192072 9.8038365 19.7069791 12.9335776 19.7420965M74.4290919 55.5596447C78.1414405 52.9300535 81.3852402 48.466801 86.6474042 52.0132228 90.1434994 54.3640706 87.7286708 58.9112819 85.8905176 59.8180375 81.349198 62.0547013 77.2764272 59.8079625 74.4290919 55.5596447M34.3568655 55.7852228C30.6042312 55.6860793 27.9388087 54.8646039 28.4999502 51.5008038 28.9909491 48.66813 30.2535177 45.4247186 34.1113661 45.8177521 37.1275021 46.1258053 40.4943516 47.3296917 40.4242089 50.913024 40.3189949 55.0133192 36.4611465 55.1478713 34.3568655 55.7852228M103.630682 63.7871255C101.556734 62.5542284 97.9528248 62.4588662 98.5308103 59.318725 99.2447923 55.3782225 102.644707 53.3381525 106.452611 52.8238777 108.628556 52.5275737 110.906499 54.0499632 110.396512 56.4135836 109.64853 59.9385794 107.098595 62.3873446 103.630682 63.7871255M34.2659818 31.7852228C32.1988758 30.7658294 28.8101774 30.4660078 29.521804 27.1961887 30.4367526 23.2914533 33.9271119 21.8029272 37.5530192 21.7852228 39.925108 21.7747087 41.9244401 23.0022136 41.3144744 26.1732679 40.5350738 30.1309131 37.858002 31.5136197 34.2659818 31.7852228M98.3479698 9.78522285C94.8974464 9.21390402 91.9501243 8.44386559 92.4892686 4.74981031 92.9924699 1.3644801 95.6163054-.232373773 98.959-.214630952 103.272154-.186242439 104.494215 3.50781285 104.422329 6.34666418 104.350443 9.9484568 100.468604 9.2848753 98.3479698 9.78522285M113.806295 85.7397423C110.355771 85.1684235 107.408449 84.3983851 107.947593 80.7043298 108.450795 77.3189996 111.07463 75.7221457 114.417325 75.7398885 118.730479 75.768277 119.952539 79.4623323 119.880654 82.3011837 119.808768 85.9029763 115.926929 85.2393948 113.806295 85.7397423M103.806295 103.739742C100.355771 103.168423 97.408449 102.398385 97.9475933 98.7043298 98.4507947 95.3189996 101.07463 93.7221457 104.417325 93.7398885 108.730479 93.768277 109.952539 97.4623323 109.880654 100.301184 109.808768 103.902976 105.926929 103.239395 103.806295 103.739742M34.2860021 1.83262543C37.0024122 1.7421883 39.7867325 2.29872452 39.2774056 5.63098511 38.6322582 9.87457375 34.7613738 9.58239224 31.6375022 9.77022321 28.9210921 9.93022737 27.1214705 8.36496927 27.3591563 5.71794389 27.800573 1.33869954 31.2300407 1.7421883 34.2860021 1.83262543M62.423384 8.85570664C61.6999522 11.6369013 59.9275443 13.7300778 57.1061602 13.8247258 54.0677467 13.9193738 51.5357354 12.368603 51.4272206 8.81930357 51.3187059 5.54666749 53.5251728 3.95585329 56.3827284 3.83572316 59.5296568 3.69739149 61.5914374 5.64131548 62.423384 8.85570664M9.46618677 52.3442269C6.9557996 52.4833228 3.943335 52.857557 4.37846878 49.7345229 4.91401804 45.6941181 9.031053 45.353002 12.1774049 44.8694781 14.5204329 44.511803 15.4576441 46.3564795 15.3237568 48.770787 15.1229259 53.2980274 12.4451795 53.2417267 9.46618677 52.3442269M70.423384 8.70354937C74.202126 7.88317716 75.0068581 1.20801179 79.660309 4.96980404 81.9345519 6.77882995 82.249447 10.312741 79.170472 12.531953 75.1817999 15.4348086 72.8025919 13.1630086 70.423384 8.70354937"/>
  <path fill="#1A1919" d="M78.8817087,79.6580689 C82.6604508,78.8376966 83.4651829,72.1625313 88.1186337,75.9243235 C90.3928766,77.7333494 90.7077718,81.2672605 87.6287968,83.4864725 C83.6401246,86.3893281 81.2609167,84.1175281 78.8817087,79.6580689" transform="scale(-1 1) rotate(70 0 -40.726)"/>
  <path fill="#1A1919" d="M65.3779034 30.0455187C64.6932416 33.9345156 62.1942258 34.7319976 59.4213453 34.8643456 56.5799987 34.9966937 55.4503066 32.9673567 55.3818404 30.5918787 55.2791412 27.7277309 57.1961943 25.9223675 59.9006086 25.8714644 62.8104215 25.8171678 64.4193768 28.0093947 65.3779034 30.0455187M85.8362282 98.0000382C85.1515664 101.889035 82.6525506 102.686517 79.8796701 102.818865 77.0383234 102.951213 75.9086314 100.921876 75.8401652 98.5463982 75.7374659 95.6822503 77.6545191 93.876887 80.3589334 93.8259839 83.2687463 93.7716873 84.8777016 95.9639142 85.8362282 98.0000382M99.8965827 39.8723786C97.1420252 39.5947958 96.0769296 38.5015995 96.5176588 36.1472863 97.1787526 32.5387103 99.0151243 30.0233306 103.202052 29.8759719 105.736245 29.7834443 106.580976 31.4900643 106.397338 33.5839294 106.030064 37.4392457 103.238779 39.0876075 99.8965827 39.8723786M73.2964557 34.7564025C75.9697694 28.1296157 80.5719297 28.4349148 85.0725718 29.016779 86.1554331 29.1604492 86.6968637 31.5597411 85.9523966 32.306826 82.4669369 35.7944195 78.4062072 36.6420735 73.2964557 34.7564025M121.743905 29.8723786C123.419368 32.4779813 127.782554 32.9193096 126.002374 37.0360207 125.059926 39.2461931 123.000503 40.0723599 120.871268 39.8322772 119.056183 39.6275009 116.892043 38.9496205 116.508083 36.7606318 115.879784 33.0781879 118.776939 31.7683253 121.743905 29.8723786M1.69400396 73.9140538C.988191351 69.5284281 1.08902172 65.9704124 5.9288796 65.011941 8.68490978 64.4708114 10.5334666 66.235672 10.365416 68.7644804 9.92848437 74.5153089 5.52555811 73.5250064 1.69400396 73.9140538M10.694004 95.9140538C9.98819135 91.5284281 10.0890217 87.9704124 14.9288796 87.011941 17.6849098 86.4708114 19.5334666 88.235672 19.365416 90.7644804 18.9284844 96.5153089 14.5255581 95.5250064 10.694004 95.9140538M57.9930875 68.9786377C59.0225112 73.0898966 58.0640822 76.3962705 53.91089 77.8256927 51.9940321 78.4903073 50.1481689 76.5265216 50.3966505 74.5660756 50.9646084 70.7253383 53.4849216 68.7281549 57.9930875 68.9786377M26.2433645 74.3391484C27.3342736 69.4345852 29.4169182 67.1056998 34.2433645 70.6859266 32.8549348 75.1733761 29.9789017 75.5939658 26.2433645 74.3391484"/>
</svg>
