<svg xmlns="http://www.w3.org/2000/svg" width="17" height="17" viewBox="0 0 17 17">
  <path fill="#CFB8BE" stroke="#D0B8BE" stroke-width=".4" d="M12,12 L12,12 L10.5,12 L10.5,9 L12,9 C13.65675,9 15,7.65675 15,6 C15,4.34325 13.65675,3 12,3 C10.3430625,3 9,4.34325 9,6 L9,7.5 L6,7.5 L6,6 C6,4.34325 4.65675,3 3,3 C1.34325,3 0,4.34325 0,6 C0,7.65675 1.34325,9 3,9 L4.5,9 L4.5,12 L3,12 L3,12 L3,12 C1.34325,12 0,13.34325 0,15 C0,16.65675 1.34325,18 3,18 C4.6569375,18 6,16.65675 6,15 L6,15 L6,13.5 L9,13.5 L9,14.99625 C9,14.99775 8.9998125,14.998875 8.9998125,15 C8.9998125,16.65675 10.3430625,18 11.9998125,18 C13.6565625,18 14.9998125,16.65675 14.9998125,15 C14.9998125,13.34325 13.65675,12.000375 12,12 Z M12,4.5 C12.828375,4.5 13.5,5.171625 13.5,6 C13.5,6.828375 12.828375,7.5 12,7.5 L10.5,7.5 L10.5,6 C10.5,5.171625 11.171625,4.5 12,4.5 Z M1.5,6 C1.5,5.171625 2.171625,4.5 3,4.5 C3.828375,4.5 4.5,5.171625 4.5,6 L4.5,7.5 L3,7.5 C2.171625,7.5 1.5,6.8281875 1.5,6 Z M3,16.5 C2.171625,16.5 1.5,15.828375 1.5,15 C1.5,14.171625 2.171625,13.5 3,13.5 L3,13.5 L4.5,13.5 L4.5,15 C4.5,15.828375 3.828375,16.5 3,16.5 Z M6,12 L6,9 L9,9 L9,12 L6,12 Z M12,16.5 C11.171625,16.5 10.5,15.828375 10.5,15 L10.5,15 L10.5,13.5 L11.9998125,13.5 C12.8281875,13.5 13.4998125,14.171625 13.4998125,15 C13.4998125,15.828375 12.828375,16.5 12,16.5 Z" transform="translate(1 -2)"/>
</svg>
