<svg xmlns="http://www.w3.org/2000/svg" width="90" height="184" viewBox="0 0 90 184">
  <path fill="#FF007B" fill-rule="evenodd" d="M-37.9941528,182.780668 C-45.4191111,182.683754 -53.5099849,175.821244 -56.7896189,166.858373 C-57.7884922,164.13977 -58.6708303,161.37438 -59.4532811,158.583927 C-60.6519291,154.221128 -55.7075062,146.930859 -51.2458721,146.583305 C-47.2836746,146.275854 -44.386942,143.784497 -40.507984,142.150327 C-50.6465481,141.017436 -59.4366332,129.65511 -60.7851122,121.245318 C-61.1347178,119.079792 -60.968239,116.819023 -60.9016474,114.605041 C-60.8350558,112.259055 -58.4877036,112.302499 -57.2557598,112.105329 C-51.4955904,111.189659 -47.5333929,106.561182 -42.1061813,105.127524 C-41.1239558,104.871872 -40.1916741,104.477532 -38.9264345,104.038078 C-45.3358716,99.7086971 -51.9617313,95.7018062 -53.8928863,87.4373849 C-53.8928863,87.435714 -53.5266328,87.2636081 -53.3268581,87.1750488 C-57.7884922,82.0503056 -52.0283228,78.2222042 -50.1970551,76.2287844 C-46.4179844,72.1450307 -41.7399277,68.2901945 -35.7133921,66.7161781 C-24.3095884,63.7385803 -12.5561791,62.2698325 -1.2522628,59.0349115 C6.17269548,56.9061462 13.714189,54.4482078 19.8739077,49.1948029 C23.0203587,46.5146306 30.2788381,48.5932679 34.2743313,52.9460414 C39.6016556,58.7441696 41.7159375,65.830585 43.131008,73.3798482 C43.9134588,77.5204135 40.300867,77.9231077 38.6693739,80.0084287 C38.0034583,80.8806543 37.2210076,81.679359 35.5895145,83.5474591 C41.7325854,81.2432462 46.8934308,79.7845241 51.5881354,77.4084612 C55.5669807,75.3966611 60.011967,74.6698064 63.8576292,72.066497 C65.6223054,70.8834783 70.1338832,70.6896504 71.6987847,74.8368994 C71.8819115,75.3248111 73.0139679,75.5286646 73.746475,75.7224925 C81.8040531,77.8696379 83.5187856,84.8039987 85.6497153,91.4843781 C88.4965043,100.365373 81.4377995,103.767387 76.4600809,108.202036 C72.9140806,111.368449 69.0018268,114.120471 65.239404,117.067992 C67.7532352,118.780696 70.2670663,118.022093 72.7808975,117.54922 C81.1214896,115.970191 88.3966169,119.873484 92.3255186,127.461179 C95.7383358,134.079734 97.4364204,140.938903 96.903688,148.372871 C96.7372091,150.792379 95.70504,152.508424 93.5741103,153.713165 C86.9316027,157.461061 80.3889825,161.356 73.7131792,165.042072 C71.81532,166.091416 71.066165,167.416464 71.7986721,169.33135 C74.4789821,176.315839 71.4324185,179.539064 65.1228688,182.64031 C55.833347,187.20195 47.2929801,193.270769 38.4030077,198.629442 C30.5452043,203.363188 22.0048375,206.233846 12.9983298,207.797837 C12.4822452,207.886396 11.7330903,207.888067 11.5333156,208.205544 C8.65323087,212.892504 4.85751229,211.249979 1.77765291,209.067744 C-2.78386855,205.834494 -5.96361526,208.919031 -9.54291129,210.621709 C-12.9723763,212.255879 -16.3518977,214.03542 -19.7813627,215.671261 C-22.728039,217.069829 -30.7356734,213.814857 -33.6657018,209.523908 C-39.2094486,201.429922 -42.7221531,192.827972 -37.9941528,182.780668" transform="rotate(-20 18 132)"/>
</svg>
