<?xml version="1.0" encoding="UTF-8"?>
<svg width="238px" height="86px" viewBox="0 0 238 86" version="1.1" xmlns="http://www.w3.org/2000/svg" xmlns:xlink="http://www.w3.org/1999/xlink">
    <!-- Generator: Sketch 61.2 (89653) - https://sketch.com -->
    <title>Group 12</title>
    <desc>Created with Sketch.</desc>
    <defs>
        <linearGradient x1="45.5380934%" y1="128.962468%" x2="45.5380934%" y2="33.0120396%" id="linearGradient-1">
            <stop stop-color="#FF2FA3" offset="0%"></stop>
            <stop stop-color="#FF2EA2" offset="33.4572111%"></stop>
            <stop stop-color="#EA0041" offset="100%"></stop>
        </linearGradient>
        <linearGradient x1="50%" y1="0%" x2="50%" y2="100%" id="linearGradient-2">
            <stop stop-color="#AC0039" offset="0%"></stop>
            <stop stop-color="#9E0059" offset="100%"></stop>
        </linearGradient>
        <linearGradient x1="50%" y1="0%" x2="50%" y2="100%" id="linearGradient-3">
            <stop stop-color="#FF97BA" offset="0%"></stop>
            <stop stop-color="#FF93D0" offset="100%"></stop>
        </linearGradient>
        <linearGradient x1="50%" y1="0%" x2="50%" y2="100%" id="linearGradient-4">
            <stop stop-color="#FF1A89" offset="0%"></stop>
            <stop stop-color="#FF1798" offset="99.9407794%"></stop>
        </linearGradient>
        <linearGradient x1="50%" y1="0%" x2="50%" y2="78.9174225%" id="linearGradient-5">
            <stop stop-color="#FF1E6F" offset="0%"></stop>
            <stop stop-color="#FF1798" offset="100%"></stop>
        </linearGradient>
    </defs>
    <g id="Page-1" stroke="none" stroke-width="1" fill="none" fill-rule="evenodd">
        <g id="Artboard" transform="translate(-31.000000, -138.000000)" fill-rule="nonzero">
            <g id="Page" transform="translate(0.000000, 119.000000)">
                <g id="Top-Bar">
                    <g id="Group-12" transform="translate(18.000000, 6.000000)">
                        <g id="Group-13">
                            <g id="Logo" transform="translate(1.060000, 0.000000)">
                                <g id="Group-76" transform="translate(56.009416, 55.366552) rotate(-110.000000) translate(-56.009416, -55.366552) translate(13.009416, 11.866552)">
                                    <path d="M43.1459424,0.3686496 C63.187344,0.3686496 80.0327088,14.0480736 84.8574144,32.5791312 C88.3838736,45.7404288 79.8872976,47.3733744 76.732128,42.437472 C74.082096,43.5087312 71.1230256,46.2140448 63.7769088,41.49816 C62.7598224,30.7188816 53.670672,22.7439168 43.1459424,22.7439168 C31.6998,22.7439168 22.4210448,32.0231472 22.4210448,43.4692896 C22.4210448,54.915432 31.6998,64.1941872 43.1459424,64.1941872 C52.859664,64.1941872 61.0114032,57.5106576 63.2564064,48.4918368 C67.5184752,53.4017616 70.472952,59.9954784 70.472952,63.552984 C70.472952,68.2769472 70.6175712,75.1697232 70.6498848,76.6532976 C63.1868688,82.8459456 53.6014512,86.5696128 43.1459424,86.5696128 C19.342224,86.5696128 0.045144,67.273008 0.045144,43.4692896 C0.045144,19.665096 19.342224,0.3686496 43.1459424,0.3686496" id="Fill-59" fill="url(#linearGradient-1)"></path>
                                    <path d="M80.9568144,44.9994336 C79.3826352,44.9721888 77.768856,44.0598048 76.732128,42.437472 C72.5459328,43.2335904 71.1230256,46.2140448 63.7769088,41.49816 C62.8762464,31.9540848 55.6479792,24.6105024 46.697904,23.0520048 C54.8268336,24.0492912 60.466824,26.4066 64.8199728,28.919616 C76.6298016,35.7382608 76.584816,44.0750112 80.9568144,44.9994336" id="Fill-62" fill="#670027"></path>
                                    <path d="M83.2206672,29.3395344 C81.0417168,23.2051776 77.4761328,17.6325072 72.7987392,13.063776 C64.8400896,5.2896624 54.2744928,0.9769056 43.1459424,0.9769056 C19.678032,0.9769056 0.6535584,20.0010624 0.6535584,43.4692896 C0.6535584,46.831488 1.0455984,50.101656 1.7837424,53.238768 C0.6432624,36.3758208 12.4741584,10.5045072 40.3459056,9.954384 C64.0238544,9.487104 79.18812,24.7340544 83.2206672,29.3395344" id="Fill-63" fill="#6D0016"></path>
                                    <path d="M23.5422,36.7306368 C22.8160944,38.8432176 22.4210448,41.1102384 22.4210448,43.4692896 C22.4210448,54.915432 31.6998,64.1941872 43.1459424,64.1941872 C51.2553888,64.1941872 58.2747264,59.5356432 61.6790592,52.7497872 C66.1099824,56.0752368 69.3019008,59.7974784 70.472952,63.552984 C70.472952,65.7086496 70.503048,68.316072 70.5390048,70.654848 C70.0962768,73.1244624 69.2583408,75.8620896 68.0434128,78.6535728 C61.0118784,83.6384208 52.4215296,86.5696128 43.1459424,86.5696128 C40.1244624,86.5696128 37.1763216,86.2575648 34.3309824,85.6660992 C41.1486768,84.5302128 48.599496,80.382192 48.3241968,76.255872 C48.0495312,72.1298688 41.9457456,73.008672 33.1474176,76.9895808 C11.1581712,86.9394768 0.5000688,54.5224416 23.5422,36.7306368" id="Fill-64" fill="url(#linearGradient-2)"></path>
                                    <path d="M53.3392992,61.516752 C56.2806288,59.8508592 58.7749536,57.4873728 60.5960784,54.650112 C63.7463376,57.1810272 65.9739168,62.845728 64.4619888,69.2881728 C63.093888,75.1158672 49.4670528,84.0645168 44.2270224,86.5561488 C43.8679296,86.5650192 43.5072528,86.5696128 43.1459424,86.5696128 C42.9389136,86.5696128 42.7318848,86.5681872 42.5258064,86.5654944 C43.0664256,85.9683264 44.2859472,84.9414192 46.3880736,83.3892576 C61.6948992,72.0885264 53.339616,61.5172272 53.339616,61.5172272 L53.3392992,61.516752 Z" id="Fill-65" fill="#610036"></path>
                                    <path d="M60.6665664,57.2592768 C63.7238448,63.6508752 60.5219472,84.739776 34.326864,85.6665744 C37.1736288,86.258832 40.1236704,86.5696128 43.1459424,86.5696128 C82.2081744,86.5696128 96.3897264,42.602208 60.1354512,31.596576 C46.4734512,27.449664 32.2412112,31.3900224 22.4942256,41.7113664 C-1.0894752,66.6839184 29.103624,90.3268608 39.7181664,63.9122352 C45.875808,48.5879856 57.6097632,50.8679952 60.6665664,57.2592768" id="Fill-66" fill="url(#linearGradient-3)"></path>
                                    <path d="M60.6665664,57.2592768 C63.7238448,63.6508752 60.5219472,84.739776 34.326864,85.6665744 C37.1736288,86.258832 40.1236704,86.5696128 43.1459424,86.5696128 C53.0289936,86.5696128 61.3153728,83.7524688 67.5992592,79.369224 C67.749264,79.1322576 67.8978432,78.8937072 68.0434128,78.6535728 C76.2098832,65.1851376 68.6804976,52.1391552 58.0429872,51.4059216 C47.40516,50.6722128 43.9913232,56.6956896 43.9913232,56.6956896 L43.9922736,56.69664 C50.242896,49.6719168 58.2245136,52.1526192 60.6665664,57.2592768" id="Fill-69" fill="url(#linearGradient-4)"></path>
                                    <path d="M79.1423424,48.3503856 C76.0936176,39.8466816 68.3288496,34.7769312 59.9428368,32.2311264 C46.556136,28.1670576 32.5605456,32.0177616 22.9763952,42.1667664 C17.6237424,47.8344768 13.1898096,55.632984 14.6437632,63.6787536 C16.8627888,75.9577632 31.0145616,78.1462176 31.8165408,66.7198752 C32.1317568,62.2262256 33.132528,58.3561968 34.6457232,55.0676544 C43.4749392,35.8806624 69.752232,36.4786224 79.1423424,48.3503856" id="Fill-70" fill="url(#linearGradient-5)"></path>
                                </g>
                            </g>
                        </g>
                        <path d="M124.5684,76.2 L124.5684,56.0337 C124.5684,49.3116 129.4194,45.9159 134.6169,45.9159 C139.5372,45.9159 142.6557,49.173 142.6557,54.9249 L142.6557,76.2 L150.1401,76.2 L150.1401,54.1626 C150.1401,44.322 143.7645,39.2631 135.7257,39.2631 C126.9939,39.2631 124.5684,44.8071 124.5684,44.8071 L124.5684,27.8979 L117.084,29.1453 L117.084,76.2 L124.5684,76.2 Z M171.1941,77.2395 C177.0153,77.2395 180.8268,74.9526 183.183,72.5271 L183.1137,76.2 L190.6674,76.2 L190.6674,40.3719 L183.2523,40.3719 L183.2523,43.8369 C180.7575,41.3421 176.3916,39.3324 171.1941,39.3324 C160.2447,39.3324 152.4831,47.8563 152.4831,58.3206 C152.4831,68.7849 160.2447,77.2395 171.1941,77.2395 Z M171.7485,70.5867 C165.0264,70.5867 159.9675,65.0427 159.9675,58.2513 C159.9675,51.4599 165.0264,45.9852 171.7485,45.9852 C178.4013,45.9852 183.6681,50.4897 183.6681,58.2513 C183.6681,66.0822 178.4013,70.5867 171.7485,70.5867 Z M201.3891,76.2 L201.3891,58.2513 C201.5277,50.6283 207.0024,45.4308 216.0807,45.4308 L216.0807,39.2631 C208.4577,39.2631 203.0523,42.8667 201.3891,47.2326 L201.3891,40.3026 L193.9047,40.3026 L193.9047,76.2 L201.3891,76.2 Z M250.8957,61.7163 L250.8957,40.3719 L243.4113,40.3719 L243.411719,61.9346205 C243.424079,62.2727236 243.642762,70.7253 234.6102,70.7253 C225.3933,70.7253 225.8091,61.9242 225.8091,61.9242 L225.8091,40.3719 L218.3247,40.3719 L218.3247,61.7163 C218.3247,76.65738 229.639172,77.2889802 234.331351,77.3082678 L234.889049,77.3082678 C239.581228,77.2889802 250.8957,76.65738 250.8957,61.7163 Z" id="haru" fill="#000000"></path>
                    </g>
                </g>
            </g>
        </g>
    </g>
</svg>