<svg viewBox="0 0 363 133" xmlns="http://www.w3.org/2000/svg">
    <defs>
        <linearGradient x1="45.538%" y1="128.962%" x2="45.538%" y2="33.012%" id="prefix__a">
            <stop stop-color="#5E94F9" offset="0%"/>
            <stop stop-color="#114FED" offset="100%"/>
        </linearGradient>
        <linearGradient x1="70.464%" y1="34.188%" x2="23.665%" y2="74.53%" id="prefix__b">
            <stop stop-color="#FF008E" offset="0%"/>
            <stop stop-color="#FF0034" offset="100%"/>
        </linearGradient>
    </defs>
    <g transform="translate(-18 -18)" fill="none" fill-rule="evenodd">
        <g transform="rotate(-110 81.302 67.998)">
            <circle fill="#FFF" cx="66.081" cy="65.543" r="34"/>
            <path d="M65.373.559c30.365 0 55.889 20.726 63.199 48.803 5.343 19.942-7.53 22.416-12.311 14.937-4.015 1.623-8.499 5.722-19.63-1.423C95.092 46.544 81.32 34.46 65.374 34.46c-17.343 0-31.402 14.06-31.402 31.403 0 17.342 14.059 31.4 31.402 31.4 14.717 0 27.069-10.126 30.47-23.79 6.458 7.439 10.934 17.43 10.934 22.82 0 7.157.22 17.6.268 19.848-11.307 9.383-25.83 15.025-41.672 15.025-36.067 0-65.305-29.237-65.305-65.303C.068 29.796 29.306.559 65.373.559" fill="url(#prefix__a)"/>
            <path d="M122.662 68.181c-2.385-.041-4.83-1.424-6.401-3.882-6.343 1.206-8.499 5.722-19.63-1.423-1.364-14.46-12.316-25.587-25.877-27.949 12.317 1.511 20.862 5.083 27.458 8.89 17.894 10.332 17.826 22.963 24.45 24.364" fill="#062088"/>
            <path d="M126.092 44.454a64.821 64.821 0 00-15.79-24.66C98.241 8.014 82.233 1.48 65.371 1.48 29.816 1.48.99 30.305.99 65.863c0 5.094.594 10.049 1.713 14.802C.975 55.115 18.9 15.915 61.13 15.082c35.876-.708 58.852 22.394 64.962 29.372" fill="#062088"/>
            <path d="M35.67 55.652a31.356 31.356 0 00-1.699 10.21c0 17.343 14.059 31.402 31.402 31.402 12.287 0 22.922-7.058 28.08-17.34 6.714 5.038 11.55 10.678 13.324 16.368 0 3.267.046 7.217.1 10.76-.67 3.743-1.94 7.89-3.78 12.12-10.655 7.553-23.67 11.994-37.724 11.994a65.58 65.58 0 01-13.356-1.369c10.33-1.72 21.619-8.006 21.201-14.258-.416-6.251-9.664-4.92-22.995 1.112C16.906 131.726.758 82.61 35.67 55.652" fill="#003FBD"/>
            <path d="M80.817 93.207a31.563 31.563 0 0010.995-10.404c4.773 3.835 8.148 12.418 5.858 22.18-2.073 8.829-22.72 22.387-30.66 26.163a66.355 66.355 0 01-2.577.014c.82-.905 2.667-2.46 5.852-4.813 23.192-17.122 10.533-33.14 10.533-33.14z" fill="#062088"/>
            <path d="M91.919 86.756c4.632 9.685-.22 41.638-39.909 43.042a65.552 65.552 0 0013.363 1.368c59.185 0 80.672-66.617 25.741-83.292-20.7-6.284-42.264-.313-57.032 15.325-35.733 37.837 10.014 73.66 26.097 33.638 9.33-23.219 27.109-19.764 31.74-10.08" fill="#54E3F6"/>
            <path d="M91.919 86.756c4.632 9.685-.22 41.638-39.909 43.042a65.552 65.552 0 0013.363 1.368c14.974 0 27.53-4.268 37.05-10.91.227-.359.453-.72.673-1.084 12.374-20.407.965-40.173-15.152-41.284-16.118-1.112-21.29 8.015-21.29 8.015l.001.001c9.47-10.644 21.564-6.885 25.264.852" fill="#2377EF"/>
            <path d="M119.913 73.258c-4.62-12.884-16.384-20.566-29.09-24.423-20.283-6.158-41.489-.323-56.01 15.054-8.11 8.587-14.828 20.403-12.625 32.594 3.362 18.605 24.804 21.92 26.019 4.608.477-6.809 1.994-12.673 4.287-17.655 13.377-29.071 53.191-28.165 67.419-10.178" fill="#2377EF"/>
        </g>
        <circle fill="url(#prefix__b)" style="mix-blend-mode:color" cx="84.5" cy="84.5" r="66.5"/>
        <path d="M188.74 123V92.445c0-10.185 7.35-15.33 15.225-15.33 7.455 0 12.18 4.935 12.18 13.65V123h11.34V89.61c0-14.91-9.66-22.575-21.84-22.575-13.23 0-16.905 8.4-16.905 8.4v-25.62l-11.34 1.89V123h11.34zm70.645 1.575c8.82 0 14.595-3.465 18.165-7.14l-.105 5.565h11.445V68.715h-11.235v5.25c-3.78-3.78-10.395-6.825-18.27-6.825-16.59 0-28.35 12.915-28.35 28.77s11.76 28.665 28.35 28.665zm.84-10.08c-10.185 0-17.85-8.4-17.85-18.69 0-10.29 7.665-18.585 17.85-18.585 10.08 0 18.06 6.825 18.06 18.585 0 11.865-7.98 18.69-18.06 18.69zm44.91 8.505V95.805c.21-11.55 8.505-19.425 22.26-19.425v-9.345c-11.55 0-19.74 5.46-22.26 12.075v-10.5h-11.34V123h11.34zm75.01-21.945v-32.34h-11.34v32.67c.02.513.35 13.32-13.335 13.32-13.965 0-13.335-13.335-13.335-13.335V68.715h-11.34v32.34c0 22.638 17.143 23.595 24.253 23.624h.844c7.11-.029 24.253-.986 24.253-23.624z" fill="#000" fill-rule="nonzero"/>
    </g>
</svg>
