<svg xmlns="http://www.w3.org/2000/svg" width="18" height="15" viewBox="0 0 18 15">
  <path fill="#FF007B" fill-rule="evenodd" d="M16.5,12 C17.3284271,12 18,12.6715729 18,13.5 C18,14.3284271 17.3284271,15 16.5,15 L1.5,15 C0.671572875,15 1.01453063e-16,14.3284271 0,13.5 C-1.01453063e-16,12.6715729 0.671572875,12 1.5,12 L16.5,12 Z M16.5,6 C17.3284271,6 18,6.67157288 18,7.5 C18,8.32842712 17.3284271,9 16.5,9 L1.5,9 C0.671572875,9 1.01453063e-16,8.32842712 0,7.5 C-1.01453063e-16,6.67157288 0.671572875,6 1.5,6 L16.5,6 Z M16.5,0 C17.3284271,-1.52179594e-16 18,0.671572875 18,1.5 C18,2.32842712 17.3284271,3 16.5,3 L1.5,3 C0.671572875,3 1.01453063e-16,2.32842712 0,1.5 C-1.01453063e-16,0.671572875 0.671572875,1.52179594e-16 1.5,0 L16.5,0 Z"/>
</svg>
