<svg xmlns="http://www.w3.org/2000/svg" width="28" height="27" viewBox="0 0 28 27">
  <path fill="#FF007B" d="M9.83933374,20.6559748 C11.7368815,20.4565345 13.4551991,21.6514673 13.6207722,23.22679 C13.7863453,24.8021127 12.3577806,26.3639945 10.4602328,26.5634348 C8.56268504,26.7628751 6.80480161,25.5359025 6.63922852,23.9605798 C6.47365544,22.3852571 7.94178597,20.8554151 9.83933374,20.6559748 Z M8.11586844,4.25829775 C13.0566532,3.73900034 16.6666038,6.40023628 17.0579584,10.1237263 C17.5622037,14.9212999 12.617764,14.7170155 12.0801816,18.212356 C11.9368624,18.9151871 11.5599113,19.4615824 10.8438555,19.5368429 L10.8438555,19.5368429 L7.83642128,19.852937 C7.08456272,19.9319605 6.53064134,19.4834038 6.52698643,18.759822 C6.50344568,12.6809822 11.783227,13.3205986 11.5085262,10.7069951 C11.3504792,9.20327798 10.1917815,8.16671647 8.54485326,8.33981561 C7.39916403,8.4602324 6.53602598,9.20252123 6.27583674,10.171024 C6.01382004,10.7777358 5.63686893,11.3241311 4.92081316,11.3993916 L4.92081316,11.3993916 L1.84177338,11.7230117 C1.08991482,11.8020353 0.535993443,11.3534786 0.603944102,10.6223707 C0.921011143,7.43979369 3.78373107,4.71362373 8.11586844,4.25829775 Z M19.8805331,11.5848051 C19.9931404,10.6676924 21.0283483,9.99080711 22.1330521,10.1264477 C23.237756,10.2620883 24.0576169,11.1667474 23.9450096,12.08386 C23.8324023,13.0009727 22.8154787,13.7012607 21.7107748,13.5656201 C20.606071,13.4299795 19.7679259,12.5019177 19.8805331,11.5848051 Z M18.200442,3.21164115 C18.7982797,1.44432595 20.7831317,0.270468802 23.3051915,0.580138803 C26.1815902,0.933316161 27.8842119,2.91961914 27.6180492,5.08733994 C27.2751089,7.88036481 24.4915822,7.11543658 23.7273661,9.03158475 C23.5536794,9.41225513 23.2677282,9.67335262 22.8508588,9.6221675 L22.8508588,9.6221675 L21.1000074,9.40718997 C20.6622946,9.35344559 20.4063156,9.02580744 20.4991877,8.61405657 C21.2834817,5.1558611 24.2004858,6.21222848 24.3873115,4.69065523 C24.4948002,3.81522952 23.9722358,3.07402008 23.0134363,2.95629429 C22.3464452,2.87439809 21.7584484,3.18303988 21.4834731,3.69937751 C21.2549338,4.00983971 20.9689825,4.27093721 20.5521132,4.21975208 L20.5521132,4.21975208 L18.7595748,3.99965605 C18.321862,3.94591167 18.065883,3.61827351 18.200442,3.21164115 Z"/>
</svg>
