<svg xmlns="http://www.w3.org/2000/svg" width="26" height="26" viewBox="0 0 26 26">
  <path fill="#CFB8BE" d="M10.939375,0.2 C16.870568,0.2 21.67875,5.00818197 21.67875,10.939375 C21.67875,13.2831529 20.9279406,15.4515699 19.6537168,17.217231 L24.8035874,22.3671271 C25.4276833,22.9912653 25.4617844,23.9797494 24.9116127,24.6459379 L24.8016099,24.7669038 L24.7669643,24.8015514 C24.1428414,25.4257102 23.1552348,25.4642298 22.4882868,24.9137225 L22.3671587,24.8035989 L17.217231,19.6537168 C15.4515699,20.9279406 13.2831529,21.67875 10.939375,21.67875 C5.00818197,21.67875 0.2,16.870568 0.2,10.939375 C0.2,5.00818197 5.00818197,0.2 10.939375,0.2 Z M10.939375,3.4 C6.77549316,3.4 3.4,6.77549316 3.4,10.939375 C3.4,15.1032568 6.77549316,18.47875 10.939375,18.47875 C15.1032568,18.47875 18.47875,15.1032568 18.47875,10.939375 C18.47875,6.77549316 15.1032568,3.4 10.939375,3.4 Z"/>
</svg>
